<svg width="105" height="78" viewBox="0 0 105 78" fill="none" xmlns="http://www.w3.org/2000/svg">
<circle cx="51.901" cy="39" r="37.5" fill="#4DC6B8" stroke="white" stroke-width="3"/>
<path d="M45.0303 18.0298H44.8309C43.3472 15.5794 41.2539 13.5527 38.7539 12.1459C36.254 10.7391 33.432 9.99988 30.5614 9.99988C27.6908 9.99988 24.8689 10.7391 22.3689 12.1459C19.8689 13.5527 17.7757 15.5794 16.2919 18.0298H16.2563L1.54089 37.6024L46.6207 47.1699L46.9932 40.8512L45.0303 18.0298Z" fill="#4E5A68"/>
<path d="M45.4399 45.9017L45.4368 45.7399L44.6578 45.595L45.4399 45.9017Z" fill="#919191"/>
<path d="M99.6449 32.2317L89.0932 20.2184C87.9066 17.3848 85.9561 14.9343 83.4579 13.1387C80.9597 11.3431 78.0115 10.2726 74.9403 10.046C71.8692 9.81931 68.7951 10.4453 66.059 11.8546C63.323 13.2639 61.0318 15.4014 59.4398 18.03L58.7227 47.352V47.4136L80.4241 48.3753L99.6449 32.2317Z" fill="#4E5A68"/>
<path d="M59.4398 18.0299H45.0304L43.9145 46.4211L53.1339 47.167L60.8509 47.6571L60.2311 47.1423L59.4398 18.0299Z" fill="#424C56"/>
<path d="M52.1323 41.0963C47.1256 41.1016 42.1523 40.2841 37.4122 38.6767H37.3318V53.1235H37.4122C46.9598 49.8993 57.3063 49.8993 66.8539 53.1235H66.9327V38.6767H66.8524C62.1123 40.2841 57.139 41.1016 52.1323 41.0963Z" fill="#5A697C"/>
<path d="M45.4399 45.9093C45.4399 50.3904 44.1072 54.7709 41.6102 58.4967C39.1133 62.2225 35.5644 65.1262 31.4123 66.8407C27.2603 68.5551 22.6916 69.0032 18.2841 68.1283C13.8766 67.2534 9.82827 65.0948 6.6512 61.9255C3.47412 58.7562 1.31098 54.7186 0.435377 50.3234C-0.440231 45.9282 0.0110239 41.3727 1.73207 37.2332C3.45311 33.0937 6.36663 29.5561 10.1041 27.0679C13.8416 24.5796 18.2352 23.2525 22.7292 23.2543C28.7533 23.2568 34.5298 25.6447 38.7887 29.8931C43.0475 34.1415 45.4399 39.9024 45.4399 45.9093Z" fill="#5A697C"/>
<path d="M104.257 45.9094C104.257 50.3902 102.924 54.7703 100.428 58.4959C97.9313 62.2215 94.383 65.1252 90.2314 66.8399C86.0799 68.5546 81.5117 69.0032 77.1044 68.1291C72.6972 67.2549 68.6489 65.0973 65.4714 61.9289C62.294 58.7606 60.1301 54.7238 59.2535 50.3292C58.3768 45.9346 58.8267 41.3794 60.5464 37.2397C62.266 33.1001 65.1781 29.5619 68.9143 27.0725C72.6506 24.5831 77.0433 23.2545 81.5369 23.2545C87.5626 23.2545 93.3415 25.6413 97.6023 29.8899C101.863 34.1386 104.257 39.901 104.257 45.9094Z" fill="#5A697C"/>
<path d="M22.7292 29.1109C19.3205 29.1132 15.9927 30.1465 13.1854 32.0743C10.378 34.0021 8.22317 36.7337 7.00546 39.9084C5.78775 43.083 5.56447 46.5513 6.36511 49.8551C7.16575 53.159 8.95265 56.1429 11.4898 58.4128L32.8373 32.4706C29.9237 30.2849 26.3752 29.1055 22.7292 29.1109Z" fill="#A5D0DB"/>
<path d="M32.8373 32.4705L11.4898 58.4128C13.181 59.9393 15.1655 61.1074 17.323 61.8463C19.4805 62.5852 21.7659 62.8794 24.0409 62.7113C26.3158 62.5431 28.5328 61.916 30.5574 60.868C32.5821 59.82 34.3721 58.3729 35.8191 56.6144C37.2662 54.856 38.3399 52.8228 38.9754 50.6382C39.6109 48.4536 39.7948 46.163 39.5159 43.9054C39.2371 41.6478 38.5014 39.4702 37.3534 37.5046C36.2054 35.539 34.6689 33.8264 32.8373 32.4705Z" fill="#8FC5D5"/>
<path d="M81.5415 29.1108C78.065 29.1132 74.6743 30.1881 71.8346 32.188C68.9949 34.1879 66.8452 37.0149 65.6804 40.2811C64.5156 43.5474 64.3928 47.093 65.3287 50.4316C66.2646 53.7703 68.2135 56.7385 70.908 58.929L91.0762 32.0559C88.2718 30.1312 84.946 29.1039 81.5415 29.1108Z" fill="#A5D0DB"/>
<path d="M91.0762 32.0559L70.908 58.9259C72.6669 60.3677 74.7006 61.4389 76.8864 62.075C79.0721 62.711 81.3644 62.8986 83.6249 62.6265C85.8854 62.3544 88.0672 61.6283 90.0383 60.4919C92.0095 59.3554 93.7291 57.8324 95.0935 56.0147C96.4578 54.197 97.4384 52.1225 97.9762 49.9163C98.5139 47.7101 98.5975 45.4182 98.2221 43.1789C97.8466 40.9396 97.0198 38.7994 95.7916 36.8876C94.5634 34.9759 92.9593 33.3322 91.0762 32.0559Z" fill="#8FC5D5"/>
</svg>