<svg width="25" height="25" viewBox="0 0 25 25" fill="none" xmlns="http://www.w3.org/2000/svg">
<path fill-rule="evenodd" clip-rule="evenodd" d="M18.8033 6.02513C18.3507 5.57248 17.6168 5.57248 17.1641 6.02513L12.7929 10.3963L8.4217 6.02513C7.96905 5.57248 7.23515 5.57248 6.7825 6.02513C6.32985 6.47779 6.32985 7.21168 6.7825 7.66433L11.1537 12.0355L6.7825 16.4067C6.32985 16.8594 6.32985 17.5933 6.7825 18.0459C7.23515 18.4986 7.96905 18.4986 8.4217 18.0459L12.7929 13.6747L17.1641 18.0459C17.6168 18.4986 18.3507 18.4986 18.8033 18.0459C19.256 17.5933 19.256 16.8594 18.8033 16.4067L14.4321 12.0355L18.8033 7.66433C19.256 7.21168 19.256 6.47779 18.8033 6.02513Z" fill="#434040"/>
</svg>