<svg width="117" height="98" viewBox="0 0 117 98" fill="none" xmlns="http://www.w3.org/2000/svg">
<rect x="86.0406" y="20.5661" width="11.517" height="9.0491" rx="4.52455" fill="#074B77"/>
<rect x="19.4064" y="20.5661" width="11.517" height="9.0491" rx="4.52455" fill="#074B77"/>
<path d="M70.4838 50.5653C67.7172 58.6442 69.1784 66.4618 73.7475 68.0265C78.3165 69.5911 84.2632 64.3102 87.0297 56.2313C89.7963 48.1524 95.5707 19.2053 91.0017 17.6406C86.4327 16.076 73.2504 42.4864 70.4838 50.5653Z" fill="#074B77"/>
<path d="M50.1197 50.1507C54.039 58.5076 53.6716 66.9446 49.2991 68.9953C44.9266 71.0459 38.2047 65.9337 34.2854 57.5767C30.3661 49.2198 20.483 18.926 24.8556 16.8754C29.2281 14.8247 46.2004 41.7937 50.1197 50.1507Z" fill="#074B77"/>
<path d="M72.6705 87.7028C72.6954 87.7028 72.7121 87.6938 72.737 87.6705C72.38 87.6938 72.3302 87.7028 72.6705 87.7028Z" fill="white"/>
<path d="M76.0458 87.6741C76.0624 87.6903 76.0789 87.6992 76.0956 87.6992C76.3945 87.6992 76.3529 87.6903 76.0458 87.6741Z" fill="white"/>
<path d="M59.7705 23.1401C60.1757 23.0012 71.4903 23.0006 77.1452 32.3064C79.8091 37.1023 84.8601 51.5076 83.753 70.7611C83.7532 74.4848 83.108 83.7608 75.8098 88.4142C69.6154 92.3621 64.6247 92.8755 60.7377 92.9843C56.3986 93.105 50.8851 92.9365 44.0151 88.5548C36.7165 83.9023 35.8 74.6264 35.7998 70.9027C34.6041 48.409 39.6959 35.8934 42.3912 32.4473C48.0509 23.1408 59.3655 23.0014 59.7705 23.1401Z" fill="#074B77"/>
<path d="M74.4182 89.4872C74.4264 89.4872 74.4347 89.4783 74.4431 89.4711C74.2933 89.4783 74.2683 89.4872 74.4182 89.4872Z" fill="white"/>
<path d="M71.3849 33.5637C68.3819 30.311 64.9007 33.078 62.6875 35.3526C61.0508 37.0391 60.7107 37.3092 59.8577 37.3212C58.9701 37.3334 58.4859 37.0392 56.8547 35.3529C54.6413 33.0726 51.1599 30.3061 48.1571 33.5651C45.1544 36.818 40.2499 42.5196 41.0405 60.9139C41.8313 79.3086 49.8201 84.5586 53.9759 86.2686C57.7973 87.8406 62.3045 88.4586 67.5955 85.8786C70.875 84.2762 77.7162 79.2999 78.5048 60.9057C79.2933 42.5173 74.3938 36.8222 71.3849 33.5637Z" fill="white"/>
<path d="M74.3253 89.4737C74.3336 89.4809 74.3418 89.4809 74.3503 89.4809C74.4751 89.4899 74.4584 89.4809 74.3253 89.4737Z" fill="white"/>
<path d="M63.4432 51.2097C61.8499 48.5456 61.1073 47.9077 60.4407 47.9078C59.7743 47.9078 58.8667 48.342 57.2292 51.1377C56.6771 52.0916 56.0551 53.5189 56.2075 54.2228C56.3535 54.9267 59.7304 56.2156 60.6888 56.1367C61.6726 56.0578 64.2242 54.867 64.3828 54.2815C64.5542 53.6434 64.0336 52.1897 63.4432 51.2097Z" fill="#FF9200"/>
<path d="M39.9725 94.949C39.9725 91.1239 43.0734 88.023 46.8985 88.023H51.4786C55.3038 88.023 58.4046 91.1239 58.4046 94.949C58.4046 96.3063 57.3043 97.4067 55.947 97.4067H42.4301C41.0728 97.4067 39.9725 96.3063 39.9725 94.949Z" fill="#FF9200"/>
<path d="M62.1839 94.949C62.1839 91.1239 65.2848 88.023 69.1099 88.023H73.69C77.5152 88.023 80.6161 91.1239 80.6161 94.949C80.6161 96.3063 79.5157 97.4067 78.1584 97.4067H64.6415C63.2842 97.4067 62.1839 96.3063 62.1839 94.949Z" fill="#FF9200"/>
<path d="M68.804 42.8006L63.8598 46.0785L68.7903 48.1478" stroke="#074B77" stroke-width="1.64529" stroke-linecap="round" stroke-linejoin="round"/>
<path d="M51.5287 42.7564L56.4561 46.0596L51.515 48.1036" stroke="#074B77" stroke-width="1.64529" stroke-linecap="round" stroke-linejoin="round"/>
<rect x="8.54492" y="0.114136" width="9.0491" height="37.1561" rx="1.64529" transform="rotate(0.169443 8.54492 0.114136)" fill="#EB758A"/>
<rect width="9.0491" height="37.1561" rx="1.64529" transform="matrix(-0.999996 0.00295733 0.00295733 0.999996 108.252 0)" fill="#EB758A"/>
<rect x="0.695435" y="6.21234" width="9.0491" height="25.5762" rx="1.64529" transform="rotate(0.169443 0.695435 6.21234)" fill="#EB758A"/>
<rect width="9.0491" height="25.5762" rx="1.64529" transform="matrix(-0.999996 0.00295733 0.00295733 0.999996 116.102 6.09814)" fill="#EB758A"/>
<rect x="16.9385" y="16.4529" width="83.9098" height="4.93587" fill="#EB758A"/>
</svg>

