<svg width="20" height="24" viewBox="0 0 20 24" fill="none" xmlns="http://www.w3.org/2000/svg">
<path fill-rule="evenodd" clip-rule="evenodd" d="M4 11.4752C4 7.91149 6.92266 5 10.5 5C14.0773 5 17 7.91149 17 11.4752C17 13.2919 16.205 15.0388 14.8489 16.2733L14.7788 16.3432C13.7792 17.3389 13.8612 19.4341 13.8667 19.5736C13.8668 19.5777 13.8669 19.5801 13.8669 19.5807C13.8669 19.6972 13.8201 19.8137 13.75 19.8835C13.6799 19.9534 13.5863 20 13.4694 20H7.50719C7.41367 20 7.29676 19.9534 7.22662 19.8835C7.13309 19.7904 7.10971 19.6972 7.10971 19.5807C7.13309 19.5575 7.22662 17.368 6.19784 16.3432C4.81835 15.132 4 13.3385 4 11.4752ZM14.1709 15.8307C14.1709 15.8075 14.2176 15.7609 14.241 15.7376C15.4802 14.6661 16.1817 13.1056 16.1817 11.4519C16.1817 8.30745 13.6331 5.76863 10.4766 5.76863C7.32014 5.76863 4.77158 8.30745 4.77158 11.4519C4.77158 13.1056 5.4964 14.6661 6.73561 15.7376C7.71763 16.7391 7.88129 18.4161 7.90468 19.1848H13.0719C13.0953 18.4161 13.259 16.809 14.1709 15.8307Z" fill="#231F20"/>
<path d="M10.3648 7C10.1717 7 10 7.17167 10 7.36481C10 7.55794 10.1717 7.72961 10.3648 7.72961C12.5321 7.72961 14.2702 9.48927 14.2702 11.6352C14.2702 11.8283 14.4419 12 14.635 12C14.8282 12 14.9998 11.8283 14.9998 11.6352C15.0213 9.08155 12.9398 7 10.3648 7Z" fill="#231F20"/>
<path fill-rule="evenodd" clip-rule="evenodd" d="M7.96078 20H13.0392C13.5654 20 14 20.4524 14 21C14 21.5476 13.5654 21.9762 13.0163 22H7.96078C7.43464 22 7 21.5476 7 21C7 20.4524 7.43464 20 7.96078 20ZM7.96078 21.1667H13.0392C13.1307 21.1667 13.1993 21.0952 13.1993 20.9762C13.1993 20.8571 13.1078 20.7857 13.0163 20.7857H7.96078C7.84641 20.7857 7.77778 20.8571 7.77778 20.9762C7.77778 21.0952 7.86928 21.1667 7.96078 21.1667Z" fill="#231F20"/>
<path fill-rule="evenodd" clip-rule="evenodd" d="M8.875 22H12.125C12.6042 22 13 22.4286 13 23C13 23.5476 12.6042 24 12.125 24H8.875C8.39583 24 8 23.5476 8 23C8 22.4524 8.39583 22 8.875 22ZM8.875 23.1667H12.125C12.2083 23.1667 12.2917 23.0952 12.2917 22.9762C12.2917 22.8571 12.2083 22.7857 12.125 22.7857H8.875C8.77083 22.7857 8.70833 22.8571 8.70833 22.9762C8.70833 23.0952 8.79167 23.1667 8.875 23.1667Z" fill="#231F20"/>
<path d="M10.5 3C10.7941 3 11 2.84 11 2.66V0.34C11 0.16 10.7647 0 10.5 0C10.2353 0 10 0.16 10 0.34V2.66C10 2.84 10.2353 3 10.5 3Z" fill="#231F20"/>
<path d="M16.7707 2.07412C16.5257 1.93588 16.2196 2.005 16.0665 2.16627L14.1068 4.37796C13.9231 4.56227 13.9843 4.81569 14.2293 4.93088C14.3212 4.97696 14.413 5 14.5049 5C14.6886 5 14.8417 4.93088 14.9335 4.81569L16.8932 2.604C17.0769 2.44273 17.0157 2.18931 16.7707 2.07412Z" fill="#231F20"/>
<path d="M5.65318 5C5.71538 5 5.77759 4.97723 5.8398 4.93168C6.00568 4.8178 6.04715 4.56728 5.94348 4.38509L4.65786 2.17596C4.55418 1.99376 4.32609 1.94821 4.1602 2.06208C3.99432 2.17596 3.95285 2.42648 4.05652 2.60867L5.34214 4.8178C5.42508 4.95445 5.52876 5 5.65318 5Z" fill="#231F20"/>
<path d="M2.80549 7.27899L0.563916 6.03975C0.386365 5.94962 0.142233 6.01722 0.0534576 6.19747C-0.0575116 6.37772 0.00906993 6.62557 0.208814 6.7157L2.45039 7.95494C2.51697 7.97747 2.56136 8 2.62794 8C2.7611 8 2.89427 7.93241 2.96085 7.79722C3.04962 7.61696 2.98304 7.36911 2.80549 7.27899Z" fill="#231F20"/>
<path d="M19.961 6.19747C19.8724 6.01722 19.6289 5.94962 19.4518 6.03975L17.194 7.27899C17.0169 7.36911 16.9505 7.61696 17.039 7.79722C17.1055 7.93241 17.2383 8 17.3711 8C17.4375 8 17.5039 7.97747 17.5482 7.95494L19.806 6.7157C19.9831 6.62557 20.0495 6.37772 19.961 6.19747Z" fill="#231F20"/>
</svg>
