<svg width="183" height="140" viewBox="0 0 183 140" fill="none" xmlns="http://www.w3.org/2000/svg">
<path fill-rule="evenodd" clip-rule="evenodd" d="M146.854 117.104L116.399 102.375L118.985 136.12L98.8597 108.918L85.4757 140L80.2904 106.556L54.0027 127.855L64.9453 95.8305L31.7759 102.466L56.3395 79.1985L23.8872 69.6516L56.4447 60.4702L32.1439 36.9274L65.2366 43.9358L54.6544 11.7907L80.7012 33.3835L86.2619 0L99.2959 31.2304L119.725 4.25629L116.761 37.9701L147.379 23.5848L129.095 52.0582L162.887 53.5572L133.472 70.2676L162.698 87.3075L128.89 88.4267L146.854 117.104Z" fill="#FF9E1C"/>
<path fill-rule="evenodd" clip-rule="evenodd" d="M95.3448 73.1538C95.5863 72.5632 96.0253 72.0917 96.4764 71.6405L99.7591 68.3579C109.444 58.6729 125.15 58.6761 134.835 68.3611C135.432 68.9581 136 69.5259 136.529 70.0549C143.128 76.6546 154.065 90.9853 154.065 90.9853L133.7 111.35C133.7 111.35 117.861 105.693 104.285 92.1167C93.5632 81.3953 94.4836 75.2601 95.3448 73.1538Z" fill="#074B77"/>
<path fill-rule="evenodd" clip-rule="evenodd" d="M129.996 66.4539C128.229 61.321 130.957 55.7272 136.09 53.9598V53.9598C138.83 53.0163 141.878 53.3285 143.897 55.408C146.296 57.8796 149.375 62.0195 151.237 68.2288C154.632 79.5425 153.955 91.8053 153.955 91.8053L140.34 96.4935L129.996 66.4539Z" fill="#116AA4"/>
<path fill-rule="evenodd" clip-rule="evenodd" d="M129.879 66.1668C128.489 62.1297 130.635 57.7301 134.672 56.34V56.34C137.074 55.5127 139.741 55.9317 141.395 57.8604C143.566 60.391 146.493 64.6915 148.459 71.0772C151.935 82.3629 152.053 94.3523 152.053 94.3523L140.906 98.1906L129.879 66.1668Z" fill="#074B77"/>
<path fill-rule="evenodd" clip-rule="evenodd" d="M98.4907 86.3227C94.7153 82.5473 93.1773 77.0042 95.8067 72.3574C97.459 69.4374 99.8285 66.0258 103.153 62.701C106.638 59.2163 110.6 56.3994 114.059 54.2895C119.25 51.1234 125.74 52.4779 130.039 56.7774L133.921 60.6594C136.71 63.4479 138.558 67.1105 138.2 71.0377C137.752 75.9591 136.116 82.9126 130.872 88.1568C125.628 93.4011 118.674 95.037 113.753 95.4855C109.825 95.8433 106.163 93.995 103.374 91.2065L98.4907 86.3227Z" fill="#116AA4"/>
<path d="M131.438 110.219L152.368 89.2882L165.379 102.299C166.316 103.236 166.316 104.756 165.379 105.693L147.842 123.229C146.905 124.167 145.386 124.167 144.448 123.229L131.438 110.219Z" fill="#116AA4"/>
<path d="M133.135 94.9451C131.885 93.6954 131.885 91.6693 133.135 90.4196V90.4196C134.384 89.1699 136.41 89.1699 137.66 90.4196L144.448 97.2078L139.923 101.733L133.135 94.9451Z" fill="#273E3A"/>
<rect x="129.74" y="96.0764" width="12.8" height="1.6" rx="0.8" transform="rotate(-45 129.74 96.0764)" fill="white"/>
<rect x="133.135" y="97.2078" width="12.8" height="1.6" rx="0.8" transform="rotate(-15 133.135 97.2078)" fill="white"/>
<rect width="12.8" height="1.6" rx="0.8" transform="matrix(-0.258819 0.965926 0.965926 0.258819 140.407 89.9351)" fill="white"/>
<path d="M138.791 117.572L152.934 103.43C153.246 103.118 153.752 103.118 154.065 103.43L158.59 107.956C158.903 108.268 158.903 108.775 158.59 109.087L144.448 123.229L138.791 117.572Z" fill="white"/>
<path fill-rule="evenodd" clip-rule="evenodd" d="M87.4297 73.1538C87.1883 72.5632 86.7492 72.0917 86.2981 71.6405L83.0154 68.3579C73.3304 58.6729 57.6246 58.6761 47.9396 68.3611C47.3427 68.9581 46.7749 69.5259 46.2459 70.0549C39.6462 76.6546 28.7096 90.9853 28.7096 90.9853L49.0743 111.35C49.0743 111.35 64.9135 105.693 78.4899 92.1167C89.2113 81.3953 88.291 75.2601 87.4297 73.1538Z" fill="#074B77"/>
<path fill-rule="evenodd" clip-rule="evenodd" d="M52.7781 66.4539C54.5455 61.321 51.8172 55.7272 46.6843 53.9598V53.9598C43.9442 53.0163 40.8964 53.3285 38.8779 55.408C36.4788 57.8796 33.3999 62.0195 31.5371 68.2288C28.1429 79.5425 28.8192 91.8053 28.8192 91.8053L42.4346 96.4935L52.7781 66.4539Z" fill="#116AA4"/>
<path fill-rule="evenodd" clip-rule="evenodd" d="M52.8956 66.1668C54.2857 62.1297 52.1399 57.7301 48.1028 56.34V56.34C45.7001 55.5127 43.0336 55.9317 41.3791 57.8604C39.2083 60.391 36.2815 64.6915 34.3151 71.0772C30.8397 82.3629 30.7219 94.3523 30.7219 94.3523L41.869 98.1906L52.8956 66.1668Z" fill="#074B77"/>
<path fill-rule="evenodd" clip-rule="evenodd" d="M84.2839 86.3227C88.0593 82.5473 89.5973 77.0042 86.9678 72.3574C85.3155 69.4374 82.9461 66.0258 79.6213 62.701C76.1365 59.2163 72.1747 56.3994 68.7155 54.2895C63.5244 51.1234 57.0346 52.4779 52.7351 56.7774L48.8531 60.6594C46.0646 63.4479 44.2163 67.1105 44.5741 71.0377C45.0225 75.9591 46.6584 82.9126 51.9027 88.1568C57.147 93.4011 64.1004 95.037 69.0218 95.4855C72.9491 95.8433 76.6116 93.995 79.4001 91.2065L84.2839 86.3227Z" fill="#116AA4"/>
<path d="M51.337 110.219L30.4067 89.2882L17.3959 102.299C16.4587 103.236 16.4587 104.756 17.3959 105.693L34.9322 123.229C35.8694 124.167 37.389 124.167 38.3263 123.229L51.337 110.219Z" fill="#116AA4"/>
<path d="M49.64 94.9451C50.8896 93.6954 50.8896 91.6693 49.64 90.4196V90.4196C48.3903 89.1699 46.3642 89.1699 45.1145 90.4196L38.3263 97.2078L42.8517 101.733L49.64 94.9451Z" fill="#273E3A"/>
<rect width="12.8" height="1.6" rx="0.8" transform="matrix(-0.707107 -0.707107 -0.707107 0.707107 53.0341 96.0764)" fill="white"/>
<rect width="12.8" height="1.6" rx="0.8" transform="matrix(-0.965926 -0.258819 -0.258819 0.965926 49.64 97.2078)" fill="white"/>
<rect x="42.3673" y="89.9351" width="12.8" height="1.6" rx="0.8" transform="rotate(75 42.3673 89.9351)" fill="white"/>
<path d="M43.9832 117.572L29.841 103.43C29.5286 103.118 29.0221 103.118 28.7096 103.43L24.1842 107.956C23.8717 108.268 23.8717 108.775 24.1842 109.087L38.3263 123.229L43.9832 117.572Z" fill="white"/>
</svg>