<svg width="137" height="93" viewBox="0 0 137 93" fill="none" xmlns="http://www.w3.org/2000/svg">
<path d="M55.0094 122.305C-68.9503 49.3612 51.2108 17.409 89.5092 -17.8013C127.808 -53.0115 135.043 -34.8635 172.242 5.59816C209.441 46.0598 182.086 40.8122 143.788 76.0224C125.238 119.858 141.801 190.451 55.0094 122.305Z" fill="#A3A6FB"/>
<path d="M91.6377 81.6205C92.6986 81.6201 93.7159 81.1983 94.4657 80.4479L110.458 64.4442C111.208 63.6938 111.629 62.6762 111.629 61.6154L111.62 38.9908C111.62 37.93 111.198 36.9127 110.448 36.1628L94.4441 20.1706C93.6937 19.4207 92.6761 18.9996 91.6153 19L68.9907 19.0081C67.9299 19.0085 66.9126 19.4303 66.1627 20.1807L50.1705 36.1845C49.4207 36.9349 48.9996 37.9524 49 39.0133L49.0081 61.6377C49.0085 62.6986 49.4303 63.7159 50.1807 64.4657L66.1844 80.458C66.9348 81.2079 67.9523 81.629 69.0132 81.6286L91.6377 81.6205Z" fill="#394167" stroke="white" stroke-width="8" stroke-linejoin="round"/>
<path fill-rule="evenodd" clip-rule="evenodd" d="M79.5189 23.0042L68.9922 23.0079L53 39.0117L53.0081 61.6361L69.0118 77.6284L79.5189 77.6246V23.0042Z" fill="#394167"/>
<path fill-rule="evenodd" clip-rule="evenodd" d="M85.0352 55.8832C86.171 55.8832 87.1609 55.6438 88.0049 55.165C88.8488 54.6863 89.499 54.0084 89.9555 53.1316C90.4119 52.2547 90.6402 51.2245 90.6402 50.041C90.6402 48.8575 90.4146 47.8273 89.9634 46.9505C89.5123 46.0736 88.8647 45.3985 88.0208 44.9251C87.1768 44.4517 86.1816 44.215 85.0352 44.215C83.8887 44.215 82.8935 44.4517 82.0495 44.9251C81.2056 45.3985 80.5554 46.0736 80.0989 46.9505C79.6425 47.8273 79.4142 48.8575 79.4142 50.041C79.4142 51.2245 79.6425 52.2547 80.0989 53.1316C80.5554 54.0084 81.2056 54.6863 82.0495 55.165C82.8935 55.6438 83.8887 55.8832 85.0352 55.8832ZM65.4298 55.4394C64.7238 55.7353 63.9038 55.8832 62.9696 55.8832C62.1204 55.8832 61.3322 55.7891 60.605 55.6008C59.8778 55.4125 59.2807 55.1516 58.8136 54.8181C58.6332 54.6782 58.5031 54.5329 58.4235 54.3823C58.3439 54.2317 58.3041 54.038 58.3041 53.8013C58.3041 53.4786 58.3996 53.1988 58.5907 52.9621C58.7818 52.7254 59.0047 52.6071 59.2595 52.6071C59.3975 52.6071 59.5302 52.6286 59.6576 52.6716C59.7849 52.7147 59.9442 52.7954 60.1353 52.9137C60.5705 53.1612 61.0031 53.3387 61.433 53.4463C61.8629 53.5539 62.3486 53.6077 62.89 53.6077C63.5163 53.6077 63.9913 53.5135 64.3151 53.3252C64.6389 53.137 64.8008 52.8599 64.8008 52.4941C64.8008 52.2466 64.6495 52.0341 64.347 51.8566C64.0444 51.6791 63.4685 51.5043 62.6193 51.3321C61.5684 51.1062 60.7456 50.8372 60.1512 50.5252C59.5567 50.2132 59.1401 49.8447 58.9012 49.4197C58.6624 48.9947 58.5429 48.481 58.5429 47.8784C58.5429 47.1899 58.7446 46.5658 59.148 46.0064C59.5514 45.4469 60.1061 45.0085 60.812 44.6911C61.5179 44.3737 62.3114 44.215 63.1925 44.215C63.9675 44.215 64.6575 44.301 65.2626 44.4732C65.8676 44.6453 66.4196 44.9143 66.9186 45.2801C67.1097 45.42 67.245 45.5679 67.3246 45.7239C67.4042 45.8799 67.444 46.0709 67.444 46.2969C67.444 46.6196 67.3512 46.8994 67.1654 47.1361C66.9796 47.3728 66.7593 47.4911 66.5046 47.4911C66.3666 47.4911 66.2392 47.4723 66.1224 47.4346C66.0056 47.397 65.8411 47.3136 65.6288 47.1845C65.5757 47.1522 65.4244 47.0688 65.175 46.9343C64.9255 46.7998 64.6336 46.6923 64.2992 46.6116C63.9648 46.5309 63.6012 46.4905 63.2085 46.4905C62.6671 46.4905 62.2318 46.5954 61.9027 46.8052C61.5737 47.015 61.4091 47.2921 61.4091 47.6364C61.4091 47.8408 61.4675 48.0076 61.5843 48.1367C61.701 48.2658 61.9187 48.3922 62.2371 48.5159C62.5556 48.6396 63.028 48.7661 63.6543 48.8952C64.6734 49.1211 65.4749 49.3928 66.0587 49.7102C66.6426 50.0276 67.0566 50.3961 67.3007 50.8157C67.5449 51.2353 67.667 51.7302 67.667 52.3004C67.667 53.0105 67.4706 53.6372 67.0778 54.1806C66.685 54.7239 66.1357 55.1435 65.4298 55.4394ZM74.7587 55.4233C74.488 55.6869 74.1297 55.8187 73.6839 55.8187C73.238 55.8187 72.8798 55.6869 72.6091 55.4233C72.3384 55.1597 72.203 54.8073 72.203 54.3662V46.7649H69.9578C69.4907 46.7649 69.1431 46.6654 68.9149 46.4663C68.6866 46.2673 68.5725 45.9633 68.5725 45.5545C68.5725 45.1456 68.6866 44.8444 68.9149 44.6507C69.1431 44.4571 69.4907 44.3602 69.9578 44.3602H77.4099C77.877 44.3602 78.2247 44.4571 78.4529 44.6507C78.6811 44.8444 78.7953 45.1456 78.7953 45.5545C78.7953 45.9633 78.6811 46.2673 78.4529 46.4663C78.2247 46.6654 77.877 46.7649 77.4099 46.7649H75.1647V54.3662C75.1647 54.8073 75.0294 55.1597 74.7587 55.4233ZM83.0447 52.7039C83.5224 53.3064 84.1859 53.6077 85.0351 53.6077C85.8843 53.6077 86.5478 53.3037 87.0255 52.6958C87.5032 52.0879 87.7421 51.203 87.7421 50.041C87.7421 48.879 87.5006 47.9968 87.0175 47.3943C86.5345 46.7918 85.8737 46.4905 85.0351 46.4905C84.1859 46.4905 83.5224 46.7891 83.0447 47.3862C82.567 47.9833 82.3281 48.8683 82.3281 50.041C82.3281 51.2138 82.567 52.1014 83.0447 52.7039ZM94.4118 55.8348C94.8682 55.8348 95.2291 55.703 95.4945 55.4394C95.7599 55.1758 95.8926 54.8181 95.8926 54.3662V51.6226H98.3926C99.624 51.6226 100.587 51.2998 101.283 50.6543C101.978 50.0088 102.326 49.1211 102.326 47.9914C102.326 46.851 101.981 45.9606 101.291 45.3205C100.601 44.6803 99.6346 44.3602 98.3926 44.3602H94.3162C93.881 44.3602 93.5466 44.4786 93.313 44.7153C93.0795 44.952 92.9627 45.2909 92.9627 45.732V54.3662C92.9627 54.8181 93.0928 55.1758 93.3529 55.4394C93.6129 55.703 93.9659 55.8348 94.4118 55.8348ZM95.8928 49.3955H97.9947C98.5361 49.3955 98.9368 49.2825 99.1969 49.0566C99.457 48.8306 99.587 48.481 99.587 48.0076C99.587 47.0715 99.0562 46.6035 97.9947 46.6035H95.8928V49.3955Z" fill="white"/>
<path d="M69 23L53 39V61.5L69 77.5H91.5L107.5 61.5V39L91.5 23H69Z" stroke="black"/>
</svg>
