<svg width="91" height="90" viewBox="0 0 91 90" fill="none" xmlns="http://www.w3.org/2000/svg">
<path d="M60.2255 85.6163L62.0001 85.6157L63.2545 84.3604L84.5162 63.0836L85.7706 61.8283L85.77 60.0537L85.7592 29.9744L85.7585 28.1998L84.5033 26.9455L63.2263 5.68377L61.971 4.42939L60.1964 4.43003L30.1171 4.44081L28.3425 4.44145L27.0881 5.69674L5.82659 26.9737L4.57222 28.229L4.57285 30.0036L4.58364 60.0827L4.58427 61.8573L5.83955 63.1117L27.1164 84.3734L28.3717 85.6278L30.1463 85.6271L60.2255 85.6163Z" fill="#116AA4" stroke="white" stroke-width="8.56853"/>
<path fill-rule="evenodd" clip-rule="evenodd" d="M44.1137 8.72003L30.1187 8.72505L8.85712 30.002L8.8679 60.0812L30.1447 81.3428L44.1137 81.3378V8.72003Z" fill="#0B5C91"/>
<path fill-rule="evenodd" clip-rule="evenodd" d="M51.4468 52.4325C52.9569 52.4325 54.273 52.1142 55.395 51.4777C56.517 50.8411 57.3815 49.9399 57.9883 48.7742C58.5952 47.6084 58.8986 46.2387 58.8986 44.6653C58.8986 43.0918 58.5987 41.7222 57.9989 40.5564C57.3991 39.3906 56.5382 38.493 55.4162 37.8636C54.2942 37.2342 52.9711 36.9196 51.4468 36.9196C49.9226 36.9196 48.5994 37.2342 47.4774 37.8636C46.3554 38.493 45.491 39.3906 44.8841 40.5564C44.2772 41.7222 43.9738 43.0918 43.9738 44.6653C43.9738 46.2387 44.2772 47.6084 44.8841 48.7742C45.491 49.9399 46.3554 50.8411 47.4774 51.4777C48.5994 52.1142 49.9226 52.4325 51.4468 52.4325ZM25.382 51.8424C24.4435 52.2358 23.3532 52.4325 22.1113 52.4325C20.9822 52.4325 19.9343 52.3073 18.9675 52.057C18.0007 51.8067 17.2069 51.4598 16.5859 51.0163C16.346 50.8304 16.1731 50.6373 16.0672 50.437C15.9614 50.2368 15.9084 49.9793 15.9084 49.6646C15.9084 49.2355 16.0355 48.8636 16.2895 48.5489C16.5435 48.2342 16.8399 48.0768 17.1786 48.0768C17.3621 48.0768 17.5385 48.1054 17.7079 48.1627C17.8773 48.2199 18.089 48.3272 18.343 48.4845C18.9216 48.8135 19.4968 49.0495 20.0683 49.1926C20.6399 49.3356 21.2856 49.4071 22.0054 49.4071C22.8381 49.4071 23.4697 49.282 23.9001 49.0316C24.3306 48.7813 24.5458 48.413 24.5458 47.9266C24.5458 47.5976 24.3447 47.3151 23.9425 47.0791C23.5402 46.8431 22.7746 46.6107 21.6455 46.3818C20.2483 46.0814 19.1545 45.7238 18.3642 45.309C17.5738 44.8942 17.0199 44.4042 16.7023 43.8392C16.3848 43.2742 16.226 42.5912 16.226 41.7901C16.226 40.8747 16.4942 40.045 17.0305 39.3012C17.5668 38.5574 18.3042 37.9745 19.2427 37.5525C20.1813 37.1305 21.2362 36.9196 22.4076 36.9196C23.4379 36.9196 24.3553 37.034 25.1597 37.2629C25.9642 37.4917 26.6981 37.8493 27.3614 38.3357C27.6154 38.5216 27.7954 38.7183 27.9012 38.9257C28.0071 39.1331 28.06 39.387 28.06 39.6874C28.06 40.1166 27.9365 40.4885 27.6895 40.8032C27.4426 41.1178 27.1497 41.2752 26.811 41.2752C26.6275 41.2752 26.4582 41.2502 26.3029 41.2001C26.1477 41.15 25.9289 41.0392 25.6466 40.8675C25.5761 40.8246 25.375 40.7138 25.0433 40.5349C24.7116 40.3561 24.3235 40.2131 23.8789 40.1058C23.4344 39.9985 22.951 39.9449 22.4288 39.9449C21.709 39.9449 21.1304 40.0844 20.6929 40.3633C20.2554 40.6422 20.0366 41.0106 20.0366 41.4683C20.0366 41.7401 20.1142 41.9618 20.2695 42.1334C20.4247 42.3051 20.714 42.4732 21.1374 42.6377C21.5608 42.8022 22.1889 42.9702 23.0216 43.1419C24.3764 43.4423 25.442 43.8035 26.2182 44.2254C26.9945 44.6474 27.5449 45.1373 27.8695 45.6952C28.1941 46.2531 28.3564 46.911 28.3564 47.6692C28.3564 48.6132 28.0953 49.4465 27.5731 50.1688C27.0509 50.8912 26.3206 51.449 25.382 51.8424ZM37.7846 51.821C37.4247 52.1714 36.9484 52.3467 36.3556 52.3467C35.7629 52.3467 35.2866 52.1714 34.9267 51.821C34.5668 51.4705 34.3868 51.0021 34.3868 50.4156V40.3097H31.4019C30.7809 40.3097 30.3187 40.1774 30.0152 39.9127C29.7118 39.6481 29.5601 39.244 29.5601 38.7004C29.5601 38.1569 29.7118 37.7564 30.0152 37.4989C30.3187 37.2414 30.7809 37.1127 31.4019 37.1127H41.3094C41.9304 37.1127 42.3926 37.2414 42.6961 37.4989C42.9995 37.7564 43.1512 38.1569 43.1512 38.7004C43.1512 39.244 42.9995 39.6481 42.6961 39.9127C42.3926 40.1774 41.9304 40.3097 41.3094 40.3097H38.3245V50.4156C38.3245 51.0021 38.1445 51.4705 37.7846 51.821ZM48.8006 48.2056C49.4357 49.0066 50.3177 49.4071 51.4468 49.4071C52.5759 49.4071 53.458 49.003 54.0931 48.1948C54.7281 47.3866 55.0457 46.2101 55.0457 44.6653C55.0457 43.1204 54.7246 41.9475 54.0825 41.1464C53.4403 40.3454 52.5618 39.9449 51.4468 39.9449C50.3177 39.9449 49.4357 40.3418 48.8006 41.1357C48.1655 41.9296 47.8479 43.1061 47.8479 44.6653C47.8479 46.2244 48.1655 47.4045 48.8006 48.2056ZM63.9129 52.3681C64.5198 52.3681 64.9996 52.1929 65.3525 51.8424C65.7053 51.492 65.8817 51.0164 65.8817 50.4156V46.768H69.2054C70.8426 46.768 72.1233 46.3389 73.0478 45.4806C73.9722 44.6224 74.4344 43.4423 74.4344 41.9404C74.4344 40.4241 73.9757 39.2404 73.0583 38.3893C72.141 37.5382 70.8567 37.1127 69.2054 37.1127H63.7859C63.2072 37.1127 62.7627 37.27 62.4522 37.5847C62.1417 37.8994 61.9864 38.35 61.9864 38.9365V50.4156C61.9864 51.0164 62.1593 51.492 62.5051 51.8424C62.8509 52.1929 63.3202 52.3681 63.9129 52.3681ZM65.8817 43.807H68.6762C69.3959 43.807 69.9287 43.6568 70.2745 43.3565C70.6203 43.0561 70.7932 42.5912 70.7932 41.9618C70.7932 40.7173 70.0875 40.0951 68.6762 40.0951H65.8817V43.807Z" fill="white"/>
</svg>
