<svg width="111" height="84" viewBox="0 0 111 84" fill="none" xmlns="http://www.w3.org/2000/svg">
<path fill-rule="evenodd" clip-rule="evenodd" d="M88.1201 70.104C88.1201 70.104 84.1326 30.2296 45.8532 30.2296C45.8532 30.2296 21.9285 31.8246 10.7636 45.3819L15.5486 53.3568C15.5486 53.3568 28.3084 42.1919 33.0933 53.3568C35.4858 60.5342 28.3084 58.9392 28.3084 70.104H88.1201Z" fill="#116AA4"/>
<rect width="68.584" height="15.9498" rx="2.32857" transform="matrix(-1 0 0 1 92.905 67.7116)" fill="white"/>
<circle r="10.7661" transform="matrix(-1 0 0 1 11.1625 56.1479)" fill="white"/>
<path d="M90.8696 46.7726C91.2493 46.7726 91.5278 46.6934 91.705 46.5351C91.8822 46.3767 91.9709 46.1256 91.9709 45.7817C91.9709 45.4469 91.8801 45.2025 91.6987 45.0487C91.5173 44.8948 91.2409 44.8179 90.8696 44.8179H87.591L91.4898 39.1303C91.6839 38.8407 91.781 38.5421 91.781 38.2344C91.781 37.9358 91.6903 37.6892 91.5088 37.4946C91.3274 37.3 91.0848 37.2028 90.781 37.2028H85.9201C85.5403 37.2028 85.2597 37.2819 85.0783 37.4403C84.8968 37.5987 84.8061 37.8498 84.8061 38.1937C84.8061 38.5195 84.8968 38.7615 85.0783 38.9199C85.2597 39.0783 85.5403 39.1575 85.9201 39.1575H88.9834L85.0846 44.8451C84.8905 45.1347 84.7935 45.4288 84.7935 45.7274C84.7935 46.026 84.8842 46.2749 85.0656 46.474C85.2471 46.6731 85.4939 46.7726 85.8061 46.7726H90.8696Z" fill="#FF9D1C"/>
<path d="M108.6 36.4053C109.191 36.4053 109.624 36.2865 109.9 36.0489C110.175 35.8114 110.313 35.4347 110.313 34.9189C110.313 34.4166 110.172 34.0501 109.89 33.8194C109.608 33.5886 109.178 33.4732 108.6 33.4732H103.5L109.565 24.9418C109.867 24.5074 110.018 24.0595 110.018 23.5979C110.018 23.15 109.877 22.7801 109.594 22.4882C109.312 22.1964 108.935 22.0505 108.462 22.0505H100.901C100.31 22.0505 99.8736 22.1693 99.5914 22.4068C99.3091 22.6444 99.168 23.021 99.168 23.5369C99.168 24.0255 99.3091 24.3886 99.5914 24.6262C99.8736 24.8637 100.31 24.9825 100.901 24.9825H105.666L99.6012 33.514C99.2993 33.9483 99.1483 34.3895 99.1483 34.8374C99.1483 35.2854 99.2894 35.6587 99.5717 35.9573C99.8539 36.256 100.238 36.4053 100.724 36.4053H108.6Z" fill="#FF9D1C"/>
<path d="M92.1623 22.0505C93.0714 22.0505 93.7381 21.8737 94.1624 21.5201C94.5866 21.1666 94.7988 20.6059 94.7988 19.8382C94.7988 19.0907 94.5816 18.5452 94.1472 18.2018C93.7129 17.8583 93.0512 17.6866 92.1623 17.6866H84.3134L93.6472 4.98898C94.1119 4.34248 94.3442 3.67578 94.3442 2.98888C94.3442 2.32218 94.127 1.77164 93.6927 1.33728C93.2583 0.902913 92.6775 0.68573 91.9502 0.68573H80.3132C79.4041 0.68573 78.7323 0.862507 78.2979 1.21606C77.8636 1.56961 77.6464 2.13025 77.6464 2.89796C77.6464 3.62527 77.8636 4.1657 78.2979 4.51926C78.7323 4.87281 79.4041 5.04959 80.3132 5.04959H87.6469L78.3131 17.7472C77.8484 18.3937 77.6161 19.0503 77.6161 19.717C77.6161 20.3837 77.8333 20.9393 78.2676 21.3838C78.702 21.8282 79.2929 22.0505 80.0405 22.0505H92.1623Z" fill="#FF9D1C"/>
</svg>
