<svg width="116" height="48" viewBox="0 0 116 48" fill="none" xmlns="http://www.w3.org/2000/svg">
<path d="M21.5063 44.4604C13.1904 38.8354 11.6446 29.1847 13.8823 23.9123" stroke="#074B77" stroke-width="2.88596" stroke-linecap="round"/>
<path d="M94.3589 35.3902C102.675 29.7652 104.221 20.1145 101.983 14.8421" stroke="#074B77" stroke-width="2.88596" stroke-linecap="round"/>
<path d="M8.21524 41.3326C4.22426 38.2467 3.79209 33.3491 5.11023 30.7696" stroke="#074B77" stroke-width="2.88596" stroke-linecap="round"/>
<path d="M107.65 32.2624C111.641 29.1765 112.073 24.2789 110.755 21.6994" stroke="#074B77" stroke-width="2.88596" stroke-linecap="round"/>
<mask id="mask0" mask-type="alpha" maskUnits="userSpaceOnUse" x="13" y="0" width="83" height="47">
<path d="M13.5438 0H96V47H13.5438V0Z" fill="#C4C4C4"/>
</mask>
<g mask="url(#mask0)">
<path d="M26.9973 33.1802C27.2862 25.7847 33.5156 20.0237 40.9111 20.3126L43.3051 20.4061C50.7005 20.695 56.4616 26.9244 56.1727 34.3199C56.0288 38.0021 52.9272 40.8706 49.2449 40.7268L33.4042 40.108C29.7219 39.9642 26.8535 36.8625 26.9973 33.1802Z" fill="#FF9200"/>
<path d="M105.048 -30.6068C99.6806 -37.7703 89.5225 -39.2266 82.359 -33.8595C75.1954 -28.4924 73.7391 -18.3343 79.1062 -11.1708C84.4733 -4.00721 108.669 16.1847 115.832 10.8176C122.996 5.45046 110.415 -23.4432 105.048 -30.6068Z" fill="#074B77"/>
<path d="M70.7044 22.1143C70.7506 22.1143 70.7815 22.0977 70.8277 22.0545C70.166 22.0977 70.0736 22.1143 70.7044 22.1143Z" fill="white"/>
<path d="M76.9601 22.0615C76.991 22.0914 77.0216 22.108 77.0525 22.108C77.6065 22.108 77.5295 22.0914 76.9601 22.0615Z" fill="white"/>
<path d="M83.9764 -95.7765C84.7703 -95.7737 104.584 -88.9037 108.835 -69.1741C110.587 -59.1582 110.684 -30.8656 97.0528 2.17716C94.7918 8.69792 88.0288 24.5493 72.423 28.2659C59.1785 31.4174 50.1273 29.2855 43.2547 27.1156C35.5832 24.6919 26.0308 21.0486 16.6615 9.20374C6.70637 -3.37572 10.7345 -20.1754 12.9955 -26.6961C24.5619 -66.8112 41.0786 -85.6352 47.8912 -90.0328C63.4536 -102.892 83.3513 -96.2654 83.9764 -95.7765Z" fill="#074B77"/>
<path d="M73.9436 25.4217C73.9589 25.4217 73.9742 25.4051 73.9899 25.3918C73.7122 25.4051 73.6659 25.4217 73.9436 25.4217Z" fill="white"/>
<path d="M97.9844 -70.4704C94.701 -77.9899 86.9248 -75.2587 81.6679 -72.6197C77.7777 -70.6603 77.0181 -70.3939 75.5171 -70.8909C73.9554 -71.4086 73.2861 -72.2177 71.4538 -76.1613C68.9628 -81.4985 64.5464 -88.4572 57.309 -84.5738C50.0756 -80.7012 38.0248 -73.6954 28.2387 -41.0049C18.4526 -8.31359 29.2536 5.7312 35.4924 11.2493C41.2294 16.3229 48.7468 20.1421 59.5787 18.8374C66.2945 18.023 81.2962 13.4636 93.8476 -18.2679C106.395 -49.9891 101.274 -62.9371 97.9844 -70.4704Z" fill="white"/>
<path d="M73.7716 25.3969C73.7869 25.4102 73.8022 25.4102 73.8179 25.4102C74.0493 25.4269 74.0183 25.4102 73.7716 25.3969Z" fill="white"/>
<path d="M62.6989 31.615C60.6155 23.9059 65.3081 15.9981 73.0729 14.133C80.8507 12.2648 88.6328 17.1978 90.2623 25.029L90.4461 25.9124L87.6602 28.6472C86.9913 29.3039 86.2145 29.8406 85.3638 30.234L78.2037 33.5449L68.9056 33.9016L64.9306 32.9796L62.9431 32.5186L62.6989 31.615Z" fill="#FF9200"/>
<path d="M90.4461 25.9125C77.0164 23.1326 66.5151 29.1583 62.9432 32.5186C65.3569 34.7541 71.9934 35.0366 78.2037 33.5449C85.3013 31.8401 91.4638 27.5448 90.4461 25.9125Z" fill="#C47408"/>
</g>
</svg>
