<svg width="88" height="101" viewBox="0 0 88 101" fill="none" xmlns="http://www.w3.org/2000/svg">
<path fill-rule="evenodd" clip-rule="evenodd" d="M24.0182 14.8224C25.7398 6.55455 33.0678 0.342865 41.8466 0.342865C51.865 0.342865 59.994 8.43267 60.0573 18.4362C60.8038 18.2598 61.5822 18.1665 62.3825 18.1665C67.9464 18.1665 72.4568 22.6769 72.4568 28.2407L76.3315 28.2407C82.7513 28.2407 87.9556 33.445 87.9556 39.8648C87.9556 46.2847 82.7513 51.4889 76.3315 51.4889H12.0114C5.59161 51.4889 0.387329 46.2847 0.387329 39.8648C0.387329 34.408 4.14744 29.8294 9.21805 28.5786C9.01766 27.7235 8.91167 26.8321 8.91167 25.9159C8.91167 19.4961 14.116 14.2918 20.5358 14.2918C21.749 14.2918 22.9187 14.4777 24.0182 14.8224Z" fill="#116AA4"/>
<path fill-rule="evenodd" clip-rule="evenodd" d="M0.805204 36.765C0.532837 37.7519 0.387329 38.7914 0.387329 39.8648C0.387329 46.2846 5.59161 51.4889 12.0114 51.4889H76.3315C82.7513 51.4889 87.9556 46.2846 87.9556 39.8648C87.9556 38.7914 87.8101 37.7519 87.5377 36.765C86.1812 41.68 81.6778 45.2894 76.3315 45.2894H12.0114C6.66506 45.2894 2.16173 41.68 0.805204 36.765Z" fill="#074B77"/>
<path d="M70.7449 71.5536C69.0631 74.849 65.0807 76.1838 61.8499 74.535C58.6191 72.8862 57.3634 68.8781 59.0452 65.5827C60.727 62.2873 70.8062 56.9854 70.8062 56.9854C70.8062 56.9854 72.4267 68.2582 70.7449 71.5536Z" fill="white"/>
<path d="M45.7449 86.5536C44.0631 89.849 40.0807 91.1838 36.8499 89.535C33.6191 87.8862 32.3634 83.8781 34.0452 80.5827C35.727 77.2873 45.8062 71.9854 45.8062 71.9854C45.8062 71.9854 47.4267 83.2582 45.7449 86.5536Z" fill="white"/>
<path d="M20.7449 71.5536C19.0631 74.849 15.0807 76.1838 11.8499 74.535C8.61911 72.8862 7.36341 68.8781 9.04519 65.5827C10.727 62.2873 20.8062 56.9854 20.8062 56.9854C20.8062 56.9854 22.4267 68.2582 20.7449 71.5536Z" fill="white"/>
</svg>
