<svg width="29" height="25" viewBox="0 0 29 25" fill="none" xmlns="http://www.w3.org/2000/svg">
<path d="M14.3897 0.37815C12.3892 0.405439 10.5049 1.18042 9.08386 2.56029C7.66297 3.94006 6.87096 5.76378 6.85374 7.6955C6.83636 9.65053 7.60304 11.4993 9.01255 12.9014C9.98365 13.8674 10.5906 15.069 10.7654 16.3461H18.233C18.4042 15.0633 19.0017 13.8714 19.9584 12.93C21.3694 11.5415 22.1464 9.70554 22.1464 7.76025C22.1464 5.76853 21.3374 3.90145 19.8683 2.50292C18.3995 1.10462 16.4544 0.350697 14.3897 0.37815Z" fill="white"/>
<path d="M10.8184 17.9868H18.1816V19.6572H10.8184V17.9868Z" fill="white"/>
<path d="M10.8327 21.2977C10.9927 23.1163 12.5758 24.5493 14.5 24.5493C16.4242 24.5493 18.0074 23.1164 18.1673 21.2977H10.8327Z" fill="white"/>
<path d="M0 6.88226H4.30491V8.52289H0V6.88226Z" fill="white"/>
<path d="M1.48788 13.9995L5.21599 11.9213L6.0656 13.3421L2.33749 15.4203L1.48788 13.9995Z" fill="white"/>
<path d="M22.8742 13.4429L23.7238 12.0221L27.4519 14.1003L26.6023 15.5211L22.8742 13.4429Z" fill="white"/>
<path d="M24.6951 6.99757H29V8.63819H24.6951V6.99757Z" fill="white"/>
<path d="M22.9337 2.17811L26.6619 0.0998461L27.5115 1.52063L23.7834 3.59889L22.9337 2.17811Z" fill="white"/>
<path d="M1.5477 1.42077L2.39731 -1.26439e-05L6.12536 2.07822L5.27575 3.499L1.5477 1.42077Z" fill="white"/>
</svg>
