<svg width="24" height="18" viewBox="0 0 24 18" fill="none" xmlns="http://www.w3.org/2000/svg">
<path d="M3.71061 8.7738e-05C3.70996 8.7738e-05 3.70924 8.7738e-05 3.70859 8.7738e-05C3.48204 8.7738e-05 3.26896 0.0832069 3.10805 0.234264C2.94538 0.386991 2.85577 0.590348 2.85577 0.806838V12.9039C2.85577 13.3475 3.24073 13.7093 3.71399 13.7104C5.70917 13.7149 9.05188 14.1063 11.3579 16.3775V3.71761C11.3579 3.56723 11.3171 3.42597 11.2401 3.30907C9.34739 0.440354 5.7103 0.0044904 3.71061 8.7738e-05Z" fill="white"/>
<path d="M21.1907 12.9039V0.80675C21.1907 0.59026 21.1011 0.386903 20.9384 0.234176C20.7775 0.0831192 20.5643 0 20.338 0C20.3373 0 20.3365 0 20.3359 0C18.3363 0.00447857 14.6992 0.440342 12.8064 3.30906C12.7294 3.42595 12.6887 3.56722 12.6887 3.71759V16.3775C14.9947 14.1062 18.3374 13.7148 20.3326 13.7103C20.8058 13.7092 21.1907 13.3474 21.1907 12.9039Z" fill="white"/>
<path d="M23.143 2.78987H22.5215V12.9039C22.5215 14.0365 21.541 14.9601 20.3358 14.9629C18.6434 14.9667 15.853 15.2782 13.8768 17.0386C17.2947 16.2509 20.8977 16.7629 22.9511 17.2033C23.2075 17.2583 23.4725 17.2015 23.6779 17.0474C23.8826 16.8937 24 16.6639 24 16.4173V3.59647C24.0001 3.15172 23.6156 2.78987 23.143 2.78987Z" fill="white"/>
<path d="M1.5249 12.9039V2.78987H0.903397C0.430937 2.78987 0.0463867 3.15172 0.0463867 3.59647V16.4171C0.0463867 16.6638 0.163816 16.8935 0.368512 17.0472C0.573772 17.2012 0.838472 17.2582 1.09527 17.2031C3.14867 16.7626 6.75181 16.2507 10.1695 17.0383C8.19339 15.278 5.40299 14.9667 3.71066 14.9629C2.50547 14.9601 1.5249 14.0366 1.5249 12.9039Z" fill="white"/>
</svg>
