<svg width="25" height="25" viewBox="0 0 25 25" fill="none" xmlns="http://www.w3.org/2000/svg">
<g clip-path="url(#clip0)">
<path d="M12.5 6.5685L3.58388 13.9189C3.58388 13.9293 3.58127 13.9446 3.57606 13.9654C3.57095 13.986 3.56824 14.001 3.56824 14.0116V21.4547C3.56824 21.7234 3.66649 21.9563 3.86294 22.1525C4.05933 22.3487 4.2919 22.4474 4.56069 22.4474H10.515V16.4928H14.4851V22.4477H20.4393C20.7081 22.4477 20.9409 22.3491 21.1371 22.1525C21.3335 21.9566 21.4321 21.7235 21.4321 21.4547V14.0116C21.4321 13.9704 21.4264 13.9392 21.4165 13.9189L12.5 6.5685Z" fill="#FFFDF8"/>
<path d="M24.8275 12.2442L21.4318 9.42195V3.09521C21.4318 2.95057 21.3853 2.83163 21.292 2.73854C21.1994 2.64555 21.0805 2.59906 20.9355 2.59906H17.9583C17.8135 2.59906 17.6946 2.64555 17.6015 2.73854C17.5085 2.83163 17.4621 2.95063 17.4621 3.09521V6.11897L13.6786 2.95552C13.3481 2.68672 12.9552 2.55235 12.5003 2.55235C12.0455 2.55235 11.6526 2.68672 11.3218 2.95552L0.172279 12.2442C0.0689225 12.3267 0.0122744 12.4378 0.00173776 12.5774C-0.00874457 12.7169 0.0273733 12.8387 0.1102 12.942L1.07159 14.0895C1.15441 14.1825 1.26282 14.2394 1.39725 14.2602C1.52135 14.2706 1.64545 14.2343 1.76956 14.1517L12.5 5.20407L23.2305 14.1516C23.3134 14.2237 23.4218 14.2598 23.5562 14.2598H23.6028C23.737 14.2393 23.8452 14.1821 23.9285 14.0893L24.8899 12.942C24.9726 12.8384 25.0088 12.7168 24.9981 12.5772C24.9875 12.438 24.9306 12.3269 24.8275 12.2442Z" fill="#FFFDF8"/>
</g>
<defs>
<clipPath id="clip0">
<rect width="25" height="25" fill="white"/>
</clipPath>
</defs>
</svg>
