<svg width="27" height="26" viewBox="0 0 27 26" fill="none" xmlns="http://www.w3.org/2000/svg">
<path d="M13.5 4.59944C13.9767 4.59944 14.3625 4.19897 14.3625 3.70492V0.894576C14.3625 0.400587 13.9767 0 13.5 0C13.0232 0 12.6374 0.400587 12.6374 0.894576V3.70486C12.6374 4.19897 13.0232 4.59944 13.5 4.59944Z" fill="white"/>
<path d="M6.33049 6.73622C6.50145 6.94716 6.74579 7.05593 6.9926 7.05593C7.18798 7.05593 7.38429 6.9874 7.54606 6.84668C7.91076 6.52918 7.9588 5.96531 7.65302 5.58654L5.91181 3.43364C5.60597 3.05533 5.06268 3.00511 4.69624 3.32318C4.33149 3.64068 4.28345 4.20455 4.58928 4.58332L6.33049 6.73622Z" fill="white"/>
<path d="M3.53121 13.2759C3.94225 13.2759 4.30618 12.971 4.37947 12.5369C4.46281 12.0502 4.14955 11.5864 3.68025 11.5004L1.01241 11.0116C0.544155 10.9269 0.0959535 11.2505 0.0134289 11.7371C-0.0699154 12.2237 0.24335 12.6875 0.712647 12.7736L3.38043 13.2624C3.43093 13.2715 3.48148 13.2759 3.53121 13.2759Z" fill="white"/>
<path d="M25.9875 11.0125L23.3179 11.5003C22.8487 11.586 22.5354 12.0502 22.6188 12.5364C22.692 12.9705 23.0559 13.2758 23.4671 13.2758C23.5167 13.2758 23.5673 13.2715 23.6179 13.2623L26.2874 12.7745C26.7566 12.6888 27.0699 12.2245 26.9866 11.7384C26.904 11.2514 26.4566 10.9264 25.9875 11.0125Z" fill="white"/>
<path d="M20.0057 7.05732C20.2525 7.05732 20.4968 6.94855 20.6669 6.73795L22.4081 4.58635C22.7148 4.20758 22.6668 3.64332 22.302 3.32576C21.9365 3.00815 21.3923 3.05887 21.0873 3.43577L19.3461 5.58742C19.0395 5.96619 19.0875 6.53045 19.4522 6.84801C19.614 6.98868 19.8102 7.05732 20.0057 7.05732Z" fill="white"/>
<path d="M24.8031 21.2054H2.1969V25.5105H24.8031V21.2054Z" fill="white"/>
<path d="M13.5 5.77443C9.03367 5.77443 5.41309 9.52911 5.41309 14.1608V19.8859H9.93078H20.5887H21.5869V14.1608C21.5869 9.52911 17.9663 5.77443 13.5 5.77443ZM7.13834 18.0967V14.1608C7.13834 10.6914 9.73622 7.84487 13.0199 7.5888C11.143 9.1224 9.93084 11.4899 9.93084 14.1608V18.0967H7.13834Z" fill="white"/>
</svg>
