<svg width="24" height="24" viewBox="0 0 24 24" fill="none" xmlns="http://www.w3.org/2000/svg">
<path d="M12.1232 18.9614C12.8762 19.7153 12.8715 20.9283 12.1232 21.6766L10.4298 23.3699C9.68772 24.1139 8.46795 24.1233 7.71457 23.3699L0.629616 16.2851C-0.11867 15.5363 -0.11867 14.3182 0.629616 13.5699L2.32298 11.8766C3.07131 11.1282 4.28427 11.1236 5.03822 11.8766L12.1232 18.9614ZM0.915059 18.1303C0.741835 17.9571 0.453848 17.9889 0.320126 18.1942C-0.211066 19.0094 -0.0472497 19.9923 0.561459 20.601L3.39861 23.4381C4.00204 24.0416 4.98417 24.2152 5.80522 23.6798C6.01056 23.5458 6.04276 23.258 5.86944 23.0846L0.915059 18.1303ZM13.2876 8.09774C12.9876 7.79824 12.5014 7.79824 12.2014 8.09774L8.0976 12.2015C7.79761 12.5015 7.79761 12.9877 8.0976 13.2877L10.712 15.9021C11.011 16.201 11.4972 16.2021 11.7982 15.9021L15.902 11.7983C16.202 11.4983 16.202 11.0121 15.902 10.7121L13.2876 8.09774ZM23.0855 5.86866C23.2589 6.04202 23.5469 6.00972 23.6808 5.80429C24.2157 4.98306 24.04 4.00071 23.4382 3.39882L20.601 0.561715C19.9938 -0.0450644 19.0116 -0.212286 18.1952 0.319378C17.9899 0.453098 17.9579 0.741128 18.1312 0.914398L23.0855 5.86866ZM16.2851 0.629871C15.5363 -0.118404 14.3181 -0.118884 13.5698 0.629871L11.8765 2.32321C11.1281 3.07148 11.1235 4.28442 11.8765 5.0384L18.9614 12.1233C19.7161 12.877 20.9291 12.8708 21.6767 12.1233L23.37 10.4299C24.1183 9.68164 24.1183 8.46348 23.37 7.71472L16.2851 0.629871Z" fill="white"/>
</svg>
