<svg width="24" height="25" viewBox="0 0 24 25" fill="none" xmlns="http://www.w3.org/2000/svg">
<path d="M22.9969 10.9124L22.9969 10.9123L13.2068 1.07345L13.2067 1.07337C12.8829 0.74783 12.4555 0.570068 11.9989 0.570068C11.5422 0.570068 11.1148 0.747712 10.7909 1.07326L10.4365 0.720593L10.7909 1.07326L1.00711 10.906L1.00676 10.9063L1.00581 10.9073L0.997076 10.9162C0.333146 11.5873 0.334408 12.6783 1.00027 13.3475L1.00036 13.3476C1.3046 13.6535 1.7045 13.8297 2.13351 13.8482L2.14716 13.8488L2.16076 13.8501C2.16687 13.8507 2.17329 13.8511 2.18008 13.8511H2.57028H3.07028V14.3511V21.5919C3.07028 22.7509 4.0087 23.6905 5.15627 23.6905H8.98647C9.09624 23.6905 9.1896 23.6003 9.1896 23.4838V17.807C9.1896 16.8794 9.94028 16.1214 10.8693 16.1214H13.1285C14.0576 16.1214 14.8083 16.8794 14.8083 17.807V23.4838C14.8083 23.6003 14.9015 23.6905 15.0114 23.6905H18.8416C19.9892 23.6905 20.9276 22.7509 20.9276 21.5919V14.3511V13.8511H21.4276H21.7894C22.2458 13.8511 22.6731 13.6735 22.9973 13.348L22.9969 10.9124ZM22.9969 10.9124L22.9981 10.9136M22.9969 10.9124L22.9981 10.9136M22.9981 10.9136C23.6643 11.5845 23.664 12.6773 22.9975 13.3478L22.9981 10.9136Z" fill="#394167" stroke="#394167"/>
</svg>
